<svg xmlns="http://www.w3.org/2000/svg" width="1200" height="630" viewBox="0 0 1200 630">
  <defs>
    <linearGradient id="bg" x1="0%" y1="0%" x2="100%" y2="100%">
      <stop offset="0%" stop-color="#0E1F1A"/>
      <stop offset="55%" stop-color="#122820"/>
      <stop offset="100%" stop-color="#1A3A2E"/>
    </linearGradient>
    <linearGradient id="lime" x1="0%" y1="0%" x2="100%" y2="0%">
      <stop offset="0%" stop-color="#D3F36B"/>
      <stop offset="100%" stop-color="#C5E85A"/>
    </linearGradient>
    <radialGradient id="glow" cx="78%" cy="42%" r="42%">
      <stop offset="0%" stop-color="#D3F36B" stop-opacity="0.18"/>
      <stop offset="100%" stop-color="#D3F36B" stop-opacity="0"/>
    </radialGradient>
  </defs>
  <rect width="1200" height="630" fill="url(#bg)"/>
  <rect width="1200" height="630" fill="url(#glow)"/>
  <rect y="0" width="1200" height="6" fill="url(#lime)"/>
  <g transform="translate(88,78)">
    <rect width="56" height="56" rx="14" fill="#0A1612" stroke="#D3F36B" stroke-width="1.5"/>
    <path d="M15 14.5v15.7c0 7.1 5.2 12.3 12.6 12.3S40.2 37.3 40.2 30.2V14.5" fill="none" stroke="#F3FAF5" stroke-width="4.2" stroke-linecap="round"/>
    <circle cx="41.2" cy="15.2" r="4.6" fill="#D3F36B"/>
  </g>
  <text x="162" y="118" font-family="Georgia, Times New Roman, serif" font-size="42" font-weight="700" fill="#F3FAF5">IOU Exchange</text>
  <text x="88" y="210" font-family="Georgia, Times New Roman, serif" font-size="64" font-weight="700" fill="#F3FAF5">Working capital for</text>
  <text x="88" y="284" font-family="Georgia, Times New Roman, serif" font-size="64" font-weight="700" fill="#D3F36B">pharmacy trade</text>
  <rect x="88" y="322" width="72" height="4" rx="2" fill="#D3F36B"/>
  <text x="88" y="372" font-family="Arial, Helvetica, sans-serif" font-size="26" font-weight="500" fill="#A8C4B4">Receivables finance for suppliers, buyers and SPVs</text>
  <text x="88" y="414" font-family="Arial, Helvetica, sans-serif" font-size="22" fill="#7A9688">Dual origination � Assignment � AfyaX-ready settlement records</text>
  <g transform="translate(88,480)" font-family="Arial, Helvetica, sans-serif" font-size="15" font-weight="700">
    <rect width="118" height="36" rx="18" fill="#F4FBE3"/>
    <text x="59" y="23" text-anchor="middle" fill="#0E1F1A">SUPPLIER</text>
    <rect x="130" width="100" height="36" rx="18" fill="#F4FBE3"/>
    <text x="180" y="23" text-anchor="middle" fill="#0E1F1A">BUYER</text>
    <rect x="242" width="80" height="36" rx="18" fill="#F4FBE3"/>
    <text x="282" y="23" text-anchor="middle" fill="#0E1F1A">SPV</text>
  </g>
  <text x="88" y="580" font-family="Arial, Helvetica, sans-serif" font-size="18" font-weight="600" fill="#D3F36B">www.ioux.africa</text>
</svg>
